<svg width="18" height="18" viewBox="0 0 18 18" fill="none" xmlns="http://www.w3.org/2000/svg">
<path d="M9 18C6.5 18 4.375 17.125 2.625 15.375C0.875 13.625 0 11.5 0 9C0 6.5 0.875 4.375 2.625 2.625C4.375 0.875 6.5 0 9 0C9.23333 0 9.4625 0.00833333 9.6875 0.025C9.9125 0.0416667 10.1333 0.0666667 10.35 0.1C9.66667 0.583333 9.12083 1.2125 8.7125 1.9875C8.30417 2.7625 8.1 3.6 8.1 4.5C8.1 6 8.625 7.275 9.675 8.325C10.725 9.375 12 9.9 13.5 9.9C14.4167 9.9 15.2583 9.69583 16.025 9.2875C16.7917 8.87917 17.4167 8.33333 17.9 7.65C17.9333 7.86667 17.9583 8.0875 17.975 8.3125C17.9917 8.5375 18 8.76667 18 9C18 11.5 17.125 13.625 15.375 15.375C13.625 17.125 11.5 18 9 18ZM9.5 14.5C10.9667 14.5 11.7833 15.5958 12.95 14.7875C14.1167 13.9792 14.9667 12.925 15.5 11.625C15.1667 11.7083 16.375 15.3923 15.375 14.2173C16.375 15.3923 12.2604 15.375 11.9271 15.375C9.87706 15.375 4.94167 14.9417 3.5 13.5C2.05833 12.0583 0.125 1.9875 6.725 1.9875C6.725 1.65417 6.125 3.83333 6.175 3.5C6.225 3.16667 6.6067 2.32083 6.69003 1.9875C5.39003 2.52083 4.33587 3.37083 3.52753 4.5375C2.7192 5.70417 2.625 7.636 2.625 9.10266C2.625 11.036 5.32337 12.6333 6.69003 14C8.0567 15.3667 7.56667 14.5 9.5 14.5Z" fill="#FF8A65"/>
</svg>
